# Clockmaker NPC - original MOKO asset
o Clockmaker
v -24 54 14
v 24 54 14
v -30 112 12
v 30 112 12
v -20 160 10
v 20 160 10
v 0 70 -24
v 0 142 -18
v -27 8 8
v 27 8 8
v -34 48 6
v 34 48 6
v 0 5 -28
v 0 52 -34
v -22 160 6
v -28 181 -5
v -4 181 -8
v 22 160 6
v 28 181 -5
v 4 181 -8
# tall hat
v -31 8 3
v 31 8 3
v -24 -32 8
v 24 -32 8
v 0 -55 4
# torso
f 1 2 7
f 1 7 3
f 2 4 7
f 3 7 8
f 4 8 7
f 3 8 5
f 4 6 8
f 5 8 6
# head
f 9 13 11
f 11 13 14
f 11 14 1
f 10 12 13
f 12 14 13
f 12 2 14
f 9 10 13
# feet
f 15 16 17
f 15 17 5
f 18 19 20
f 18 6 20
# hat
f 21 22 23
f 22 24 23
f 23 24 25
