# MOKO: The Lost Hour - original low-poly protagonist mesh
# Model-first PS1 asset. Coordinates are authored for the game's Y-down local space.
o Moko
v -24 70 18
v 24 70 18
v -34 116 14
v 34 116 14
v -24 148 18
v 24 148 18
v 0 88 -24
v 0 136 -20
v -34 28 10
v 34 28 10
v -39 62 8
v 39 62 8
v -22 78 5
v 22 78 5
v 0 26 -25
v 0 68 -34
v -31 28 8
v -18 -7 12
v -5 29 6
v 5 29 6
v 18 -7 12
v 31 28 8
v -27 148 10
v -38 176 -5
v -4 174 -9
v 27 148 10
v 38 176 -5
v 4 174 -9
v -14 56 -31
v 14 56 -31
v 0 73 -39
v -16 94 -25
v 16 94 -25
v -15 122 -24
v 15 122 -24
v 28 110 17
v 50 103 15
v 65 86 12
v 75 65 9
# torso
f 1 2 7
f 1 7 3
f 2 4 7
f 3 7 8
f 4 8 7
f 3 8 5
f 4 6 8
f 5 8 6
# head
f 9 15 11
f 11 15 16
f 11 16 13
f 10 12 15
f 12 16 15
f 12 14 16
f 9 10 15
f 10 16 15
f 13 16 14
# ears
f 17 18 19
f 20 21 22
# legs and feet
f 23 24 25
f 23 25 5
f 26 27 28
f 26 6 28
# muzzle / chest clock plate
f 29 30 31
f 32 33 34
f 32 34 35
# tail
f 36 37 38
f 36 38 39
