# Shadow Boar - original MOKO enemy asset
o ShadowBoar
v -48 72 30
v 48 72 30
v -58 118 24
v 58 118 24
v -45 145 18
v 45 145 18
v 0 80 -38
v 0 132 -32
# snout/head
v -38 42 18
v 38 42 18
v -46 72 10
v 46 72 10
v 0 38 -34
v 0 78 -42
# tusks
v -35 74 -16
v -55 86 -22
v -30 88 -20
v 35 74 -16
v 55 86 -22
v 30 88 -20
# legs
v -40 142 12
v -44 178 0
v -18 178 -5
v -14 142 -10
v 14 142 12
v 18 178 -5
v 44 178 0
v 40 142 -10
# back spikes
v -25 62 24
v -14 25 12
v 0 62 22
v 14 25 12
v 25 62 24
# body
f 1 2 7
f 1 7 3
f 2 4 7
f 3 7 8
f 4 8 7
f 3 8 5
f 4 6 8
f 5 8 6
f 1 3 5
f 2 6 4
# head
f 9 13 11
f 11 13 14
f 11 14 1
f 10 12 13
f 12 14 13
f 12 2 14
f 9 10 13
# tusks
f 15 16 17
f 18 20 19
# legs
f 21 22 23
f 21 23 24
f 25 26 27
f 25 27 28
# spikes
f 29 30 31
f 31 32 33
