# Village of Dawn vertical slice REV316
# Original PS1-style environment mesh: continuous lane, side buildings, market props, arch and clock tower.
o VillageDawn
# lane strip
v -330 184 850
v 330 184 850
v -300 184 1100
v 300 184 1100
v -260 184 1380
v 260 184 1380
v -220 184 1680
v 220 184 1680
# left near house block
v -900 184 1040
v -520 184 1040
v -900 -30 1040
v -520 -30 1040
v -900 184 1320
v -520 184 1320
v -900 -30 1320
v -520 -30 1320
# left roof
v -930 -30 1010
v -490 -30 1010
v -710 -125 1170
v -930 -30 1350
v -490 -30 1350
# right near house block
v 520 184 1080
v 900 184 1080
v 520 -25 1080
v 900 -25 1080
v 520 184 1360
v 900 184 1360
v 520 -25 1360
v 900 -25 1360
# right roof
v 490 -25 1050
v 930 -25 1050
v 710 -120 1210
v 490 -25 1390
v 930 -25 1390
# left far house
v -860 184 1420
v -590 184 1420
v -860 15 1420
v -590 15 1420
v -860 184 1650
v -590 184 1650
v -860 15 1650
v -590 15 1650
v -890 15 1400
v -560 15 1400
v -725 -65 1535
v -890 15 1670
v -560 15 1670
# right far house
v 590 184 1440
v 860 184 1440
v 590 10 1440
v 860 10 1440
v 590 184 1670
v 860 184 1670
v 590 10 1670
v 860 10 1670
v 560 10 1420
v 890 10 1420
v 725 -70 1555
v 560 10 1690
v 890 10 1690
# arch posts and beam
v -150 184 1610
v -80 184 1610
v -150 10 1610
v -80 10 1610
v 80 184 1610
v 150 184 1610
v 80 10 1610
v 150 10 1610
v -150 10 1610
v 150 10 1610
v -150 -35 1610
v 150 -35 1610
# clock tower body
v -95 184 1760
v 95 184 1760
v -95 -105 1760
v 95 -105 1760
v -95 184 1890
v 95 184 1890
v -95 -105 1890
v 95 -105 1890
# tower roof
v -125 -105 1740
v 125 -105 1740
v 0 -205 1825
v -125 -105 1910
v 125 -105 1910
# left market stall beside playable lane
v -410 184 1260
v -300 184 1260
v -410 118 1260
v -300 118 1260
v -410 184 1360
v -300 184 1360
v -410 118 1360
v -300 118 1360
v -430 112 1245
v -280 112 1245
v -355 70 1305
v -430 112 1375
v -280 112 1375
# right awning / produce booth
v 300 184 1370
v 420 184 1370
v 300 120 1370
v 420 120 1370
v 300 184 1475
v 420 184 1475
v 300 120 1475
v 420 120 1475
v 280 114 1350
v 440 114 1350
v 360 76 1420
v 280 114 1495
v 440 114 1495
# two slim dawn-clock signposts
v -250 184 1510
v -232 184 1510
v -250 72 1510
v -232 72 1510
v -270 72 1508
v -212 72 1508
v -241 38 1508
v 230 184 1180
v 248 184 1180
v 230 76 1180
v 248 76 1180
v 210 76 1178
v 268 76 1178
v 239 42 1178
# lane
f 1 2 4
f 1 4 3
f 3 4 6
f 3 6 5
f 5 6 8
f 5 8 7
# left house walls
f 9 10 12
f 9 12 11
f 13 15 16
f 13 16 14
f 9 11 15
f 9 15 13
f 10 14 16
f 10 16 12
# left roof
f 17 18 19
f 17 19 20
f 20 19 21
f 18 21 19
# right house walls
f 22 24 25
f 22 25 23
f 26 27 29
f 26 29 28
f 22 26 28
f 22 28 24
f 23 25 29
f 23 29 27
# right roof
f 30 32 31
f 30 33 32
f 33 34 32
f 31 32 34
# far left
f 35 36 38
f 35 38 37
f 39 41 42
f 39 42 40
f 35 37 41
f 35 41 39
f 43 44 45
f 43 45 46
f 46 45 47
f 44 47 45
# far right
f 48 50 51
f 48 51 49
f 52 53 55
f 52 55 54
f 48 52 54
f 48 54 50
f 56 58 57
f 56 59 58
f 59 60 58
f 57 58 60
# arch
f 61 62 64
f 61 64 63
f 65 67 68
f 65 68 66
f 69 70 72
f 69 72 71
# tower body
f 73 74 76
f 73 76 75
f 77 79 80
f 77 80 78
f 73 75 79
f 73 79 77
f 74 78 80
f 74 80 76
# tower roof
f 81 83 82
f 81 84 83
f 84 85 83
f 82 83 85
# left market stall body and canopy
f 86 87 89
f 86 89 88
f 90 92 93
f 90 93 91
f 86 88 92
f 86 92 90
f 94 95 96
f 94 96 97
f 97 96 98
f 95 98 96
# right booth body and canopy
f 99 100 102
f 99 102 101
f 103 105 106
f 103 106 104
f 99 103 104
f 99 104 100
f 107 108 109
f 107 109 110
f 110 109 111
f 108 111 109
# dawn-clock signposts
f 112 113 115
f 112 115 114
f 116 117 118
f 119 120 122
f 119 122 121
f 123 124 125
